<svg xmlns="http://www.w3.org/2000/svg" width="231" height="230" viewBox="0 0 231 230"><g transform="translate(-39 -552)"><path d="M115.5,1A115.838,115.838,0,0,0,92.422,3.316,114.49,114.49,0,0,0,10,70.628a113.056,113.056,0,0,0-6.671,21.4,114.628,114.628,0,0,0,0,45.95,113.106,113.106,0,0,0,17.227,40.761A114.682,114.682,0,0,0,221,159.372a113.056,113.056,0,0,0,6.671-21.4,114.628,114.628,0,0,0,0-45.95,113.106,113.106,0,0,0-17.227-40.761A114.5,114.5,0,0,0,115.5,1m0-1C179.289,0,231,51.487,231,115S179.289,230,115.5,230,0,178.513,0,115,51.711,0,115.5,0Z" transform="translate(39 552)"/><path d="M2111.442-5246.565h-1v-112.454h1Z" transform="translate(-1956.442 5922.277)"/><path d="M162.139,713.49l-.949-.314,36.574-110.414.949.314Z" transform="translate(-41.098 56.531)"/><path d="M-10879.6-4703.413c-1.536-1.03-62.169-36.953-62.781-37.316l.51-.86c2.5,1.482,61.27,36.3,62.828,37.345Z" transform="translate(11040 5375)"/></g></svg>