<svg xmlns="http://www.w3.org/2000/svg" xmlns:xlink="http://www.w3.org/1999/xlink" width="262.843" height="51.383" viewBox="0 0 262.843 51.383"><defs><clipPath id="a"><path d="M0,10.565H262.843V-40.818H0Z" transform="translate(0 40.818)"/></clipPath></defs><g clip-path="url(#a)"><g transform="translate(0.001 39.26)"><path d="M1.928.811.422.893C.7-1.3-.871-1.84-2.67-1.84c-1.947,0-2.978.687-2.978,1.915,0,1.244,1.473,1.751,3.78,2.389C.684,3.184,2.288,3.658,2.288,5.8c0,2.111-2.013,3.191-4.581,3.191-3.289,0-4.908-1.456-5.154-4.173l1.406-.2c.18,2.291,1.751,3.06,3.715,3.077S.766,7.028.766,5.833c0-1.308-1.587-1.619-3.779-2.257C-5.894,2.742-7.12,1.891-7.12.091c0-1.915,1.619-3.206,4.45-3.206,3.01,0,4.974,1.439,4.6,3.926M6.69-2.676H5.367V8.779H6.69ZM9.384,4.689A4.131,4.131,0,0,1,13.7.37a4.065,4.065,0,0,1,4.3,4.319,4.079,4.079,0,0,1-4.3,4.3,4.11,4.11,0,0,1-4.319-4.3m1.44,0a2.883,2.883,0,1,0,5.743,0,2.886,2.886,0,1,0-5.743,0M27.195.517H25.689L23.629,7.211l-.2.72h-.2l-.2-.72L20.994.517H19.488l2.766,8.262h2.159Zm9.1,5.988H34.871a1.976,1.976,0,0,1-2.095,1.327,2.642,2.642,0,0,1-2.685-2.752h6.3C36.7,1.84,34.92.386,32.695.386a4.038,4.038,0,0,0-4.026,4.334,3.93,3.93,0,0,0,4.14,4.255,3.286,3.286,0,0,0,3.483-2.47M35.084,3.938h-4.96a2.5,2.5,0,0,1,2.538-2.425,2.319,2.319,0,0,1,2.422,2.425m5.3-3.42V1.858h.292A2.736,2.736,0,0,1,43.263.386a2.564,2.564,0,0,1,2.584,2.863v5.53H44.522V3.56c0-1.522-.7-1.947-1.6-1.947a2.311,2.311,0,0,0-2.453,2.406V8.779H39.14V.517ZM54.805,3.151H53.578c.016-1.1-.719-1.7-1.913-1.7-1.064,0-1.686.54-1.686,1.227,0,.638.425.966,1.62,1.342,2.061.638,3.174,1.162,3.174,2.65,0,1.424-1.195,2.291-2.977,2.291-1.849,0-3.01-.867-3.223-2.5H49.9A1.7,1.7,0,0,0,51.812,7.9c1,0,1.652-.442,1.652-1.146,0-.835-1.013-1.259-2.372-1.668-1.686-.507-2.4-1.146-2.4-2.357,0-1.407,1.292-2.355,2.977-2.355,1.864,0,3.174.915,3.141,2.781m9.607,5.628V8.566L61.041,3.707,64.413.517H62.629L59.4,3.675H59.11V-2.674H57.722V8.779H59.11V5.409l.966-.916L62.94,8.779ZM67.066-1.643,67.377-.6,72.5-1.839l-.326-1.293Zm-.85,4.121,1.242.59a2.225,2.225,0,0,1,2.209-1.556c1.343,0,2.063.72,2.063,1.769,0,.8-.409.885-2.423.885-2,0-3.255.881-3.255,2.388s1.161,2.388,2.863,2.388a3.05,3.05,0,0,0,2.718-1.373l.278.016c.033.753.359,1.193,1.1,1.193h.311V7.652c-.213,0-.327-.132-.327-.558v-3.6c0-1.916-1.21-3.124-3.4-3.124a3.359,3.359,0,0,0-3.37,2.109m5.5,2.389v.786a2.284,2.284,0,0,1-2.571,2.2c-1.031,0-1.669-.509-1.669-1.327,0-.869.638-1.36,2.177-1.36a4.049,4.049,0,0,0,2.063-.295M87.278,8.779h1.438v-4.3l1.669-1.44,4.222,5.743h1.669V8.6L91.449,2.136l5.3-4.974h-1.98L88.716,2.725V-2.837H87.278Zm10.706-4.09A4.13,4.13,0,0,1,102.3.37a4.066,4.066,0,0,1,4.3,4.319,4.311,4.311,0,0,1-8.622,0m1.439,0a2.883,2.883,0,1,0,5.743,0,2.886,2.886,0,1,0-5.743,0m16.184-2.8h.213a3.155,3.155,0,0,1,2.8-1.5A2.569,2.569,0,0,1,121.2,3.265V8.779h-1.326V3.56c0-1.522-.655-1.947-1.718-1.947A2.155,2.155,0,0,0,116,4V8.779h-1.327V3.56c0-1.522-.7-1.947-1.636-1.947a2.382,2.382,0,0,0-2.421,2.52V8.779H109.29V.517h1.244V1.858h.293A2.669,2.669,0,0,1,113.3.386a2.274,2.274,0,0,1,2.309,1.5m8.193,2.8A4.131,4.131,0,0,1,128.119.37a4.065,4.065,0,0,1,4.3,4.319,4.311,4.311,0,0,1-8.622,0m1.44,0a2.883,2.883,0,1,0,5.743,0,2.886,2.886,0,1,0-5.743,0m11.19,4.09V4.884c0-2.552,1.031-3.141,3.371-2.944V.451c-1.866-.164-2.7.458-3.109,1.669h-.327V.516h-1.258V8.779Zm5.421-6.3,1.241.59A2.227,2.227,0,0,1,145.3,1.513c1.343,0,2.063.72,2.063,1.769,0,.8-.409.885-2.423.885-2,0-3.255.881-3.255,2.388s1.159,2.388,2.863,2.388a3.052,3.052,0,0,0,2.718-1.373l.278.016c.031.753.359,1.193,1.094,1.193h.311V7.652c-.213,0-.327-.132-.327-.558v-3.6c0-1.916-1.208-3.124-3.4-3.124a3.356,3.356,0,0,0-3.37,2.109m5.5,2.389v.786a2.285,2.285,0,0,1-2.571,2.2c-1.032,0-1.67-.509-1.67-1.327,0-.869.638-1.36,2.178-1.36a4.052,4.052,0,0,0,2.063-.295M173.465,1.5l-.589-1.21-2.717,1.406-1.766-4.532h-2.635L162.436,5.72l-1.455.752.6,1.26.082-.049-.424,1.1h1.619l.8-2.144,5.694-2.977,1.915,5.121h1.636L170.65,2.971Zm-9.081,3.208,1.98-5.27.573-1.687h.278l.573,1.687,1.1,2.929ZM177,8.779V4.884c0-2.552,1.031-3.141,3.371-2.944V.451c-1.866-.164-2.7.458-3.109,1.669h-.327V.516h-1.258V8.779Zm12.57-5.3h-1.357a2.051,2.051,0,0,0-2.291-1.964c-1.473,0-2.634.982-2.634,3.157,0,1.913.949,3.157,2.634,3.157A1.861,1.861,0,0,0,187.979,6.5h1.439a3.3,3.3,0,0,1-3.468,2.471c-2.584,0-4.057-1.686-4.057-4.237,0-2.683,1.7-4.368,4.106-4.368a3.246,3.246,0,0,1,3.566,3.109m3.93-6.153h-1.308V8.779h1.324V4.017a2.286,2.286,0,0,1,2.423-2.406c.9,0,1.6.425,1.6,1.947v5.22h1.324V3.231A2.557,2.557,0,0,0,196.279.386a2.909,2.909,0,0,0-2.62,1.47H193.5Zm10.038-.065h-1.749v1.7h1.749Zm0,1.7M203.32.517H202V8.779h1.323Zm4.969,1.226V6.864c0,.54.229.786.671.786h1.684V8.779h-1.733c-1.244,0-1.931-.54-1.931-1.784V1.743h-1.439V.532h1.439V-1.676h1.309V.532h1.636V1.743Zm11.528,4.762H218.4A1.976,1.976,0,0,1,216.3,7.832a2.642,2.642,0,0,1-2.685-2.752h6.3c.311-3.24-1.47-4.694-3.7-4.694A4.037,4.037,0,0,0,212.2,4.721a3.929,3.929,0,0,0,4.139,4.255,3.286,3.286,0,0,0,3.483-2.47M218.61,3.938h-4.961a2.5,2.5,0,0,1,2.538-2.425,2.32,2.32,0,0,1,2.423,2.425m10.754,4.841V8.566l-3.371-4.859,3.371-3.19h-1.784l-3.224,3.157h-.295V-2.674h-1.39V8.779h1.39V5.409l.965-.916,2.864,4.286Zm4.356-7.036V6.864c0,.54.229.786.671.786h1.684V8.779h-1.733c-1.244,0-1.931-.54-1.931-1.784V1.743h-1.439V.532h1.439V-1.676h1.309V.532h1.635V1.743Zm3.865,2.946A4.13,4.13,0,0,1,241.9.37a4.066,4.066,0,0,1,4.3,4.319,4.311,4.311,0,0,1-8.622,0m1.439,0a2.883,2.883,0,1,0,5.743,0,2.886,2.886,0,1,0-5.743,0M255.4.517h-1.506l-2.062,6.693-.2.72h-.2l-.2-.72L249.2.517h-1.506l2.766,8.262h2.159Z" transform="translate(7.447 3.132)"/></g><g transform="translate(0.001 0)"><path d="M1.928.807.422.889C.7-1.3-.871-1.844-2.67-1.844c-1.947,0-2.978.687-2.978,1.915,0,1.244,1.473,1.751,3.78,2.389C.684,3.18,2.288,3.655,2.288,5.8c0,2.111-2.013,3.191-4.581,3.191-3.289,0-4.908-1.456-5.154-4.173l1.406-.2C-5.861,6.91-4.29,7.679-2.326,7.7S.766,7.025.766,5.83c0-1.308-1.587-1.619-3.779-2.257C-5.894,2.738-7.12,1.887-7.12.087c0-1.915,1.619-3.206,4.45-3.206C.34-3.119,2.3-1.68,1.928.807M87.278,8.776h1.438v-4.3l1.669-1.44,4.222,5.743h1.669V8.6L91.449,2.133l5.3-4.974h-1.98L88.716,2.722V-2.841H87.278Zm86.186-7.281-.589-1.21-2.717,1.406-1.766-4.532h-2.635l-3.322,8.556-1.455.753.6,1.26.082-.049-.425,1.1h1.62l.8-2.144,5.694-2.977,1.915,5.121h1.636L170.65,2.967ZM164.383,4.7l1.98-5.27.573-1.687h.278l.573,1.687,1.1,2.929Z" transform="translate(7.447 3.119)"/></g></g></svg>