<?xml version="1.0" standalone="no"?>
<!DOCTYPE svg PUBLIC "-//W3C//DTD SVG 20010904//EN"
 "http://www.w3.org/TR/2001/REC-SVG-20010904/DTD/svg10.dtd">
<svg version="1.0" xmlns="http://www.w3.org/2000/svg"
 width="879.000000pt" height="879.000000pt" viewBox="0 0 879.000000 879.000000"
 preserveAspectRatio="xMidYMid meet">
<metadata>
Created by potrace 1.14, written by Peter Selinger 2001-2017
</metadata>
<g transform="translate(0.000000,879.000000) scale(0.100000,-0.100000)"
fill="#000000" stroke="none">
<path d="M3791 8012 c-5 -9 -435 -1122 -956 -2472 -521 -1350 -951 -2459 -956
-2465 -6 -5 -237 35 -622 108 -336 64 -623 118 -637 119 -24 3 -25 1 -106
-377 -46 -209 -83 -390 -83 -402 -1 -16 6 -23 26 -27 16 -3 271 -51 568 -106
296 -56 541 -103 543 -105 2 -2 -127 -342 -287 -755 -160 -413 -291 -755 -291
-761 0 -6 184 -8 501 -7 l501 3 248 670 247 670 34 -1 c19 -1 448 -81 954
-178 506 -97 1516 -290 2244 -429 l1324 -253 91 -239 92 -240 507 -3 c279 -1
507 1 507 6 0 4 -22 62 -50 129 -27 67 -50 126 -50 131 0 6 12 10 27 9 l27 -2
83 380 c45 209 82 390 82 402 1 18 -7 23 -56 33 -167 34 -516 110 -518 112 -1
2 -113 291 -249 643 -137 352 -536 1383 -888 2290 -352 908 -711 1835 -799
2060 -87 226 -216 559 -287 740 l-128 330 -816 3 c-772 2 -818 1 -827 -16z
m1089 -882 c98 -289 232 -671 298 -850 66 -179 260 -703 432 -1165 929 -2504
1091 -2947 1086 -2952 -3 -3 -358 60 -788 141 -2293 430 -3110 584 -3114 589
-7 6 -54 -123 744 2017 415 1114 697 1887 805 2205 91 270 170 503 176 518 11
28 11 28 97 25 l86 -3 178 -525z"/>
</g>
</svg>
