<svg xmlns="http://www.w3.org/2000/svg" xmlns:xlink="http://www.w3.org/1999/xlink" version="1.1" id="Layer_1" x="0px" y="0px" style="enable-background:new 0 0 400 136;" xml:space="preserve" viewBox="73.3 40.7 262.9 53">
<style type="text/css">
	.st0{enable-background:new    ;}
</style>
<g class="st0">
	<path d="M83,44.7l-1.6,0.1c0.3-2.3-1.3-2.8-3.2-2.8c-2,0-3.1,0.7-3.1,2c0,1.3,1.7,1.8,3.9,2.5c2.4,0.7,4.3,1.3,4.3,3.4   c0,2.2-2.1,3.3-4.7,3.3c-3.5,0-5.1-1.6-5.3-4.4l1.4-0.2c0.1,2.4,1.7,3.2,3.8,3.2c2,0,3.2-0.7,3.2-1.9c0-1.3-1.6-1.7-3.9-2.3   c-3-0.9-4.3-1.8-4.3-3.6c0-1.9,1.7-3.3,4.6-3.3C81.4,40.6,83.4,42.1,83,44.7z"/>
</g>
<g class="st0">
	<path d="M167.5,40.9h1.5v5.7l6.2-5.7h2l-5.5,5.1l5,6.7v0.2H175l-4.4-5.9l-1.7,1.5v4.4h-1.5V40.9z"/>
</g>
<g class="st0">
	<path d="M245.9,43.3l-1.4,3.7l5.3,4.5l-0.9,1l-5-4.2l-1.7,4.6h-1.7l2.2-5.6l-3.2-2.6l0.9-1l2.8,2.3l2-5.1h2.7l4.7,12H251l-3.6-9.6   l-0.6-1.7h-0.3L245.9,43.3z"/>
</g>
<g class="st0">
	<path d="M83,85.2l-1.6,0.1c0.3-2.3-1.3-2.8-3.2-2.8c-2,0-3.1,0.7-3.1,2c0,1.3,1.7,1.8,3.9,2.5c2.4,0.7,4.3,1.3,4.3,3.4   c0,2.2-2.1,3.3-4.7,3.3c-3.5,0-5.1-1.6-5.3-4.4l1.4-0.2c0.1,2.4,1.7,3.2,3.8,3.2c2,0,3.2-0.7,3.2-1.9c0-1.3-1.6-1.7-3.9-2.3   c-3-0.9-4.3-1.8-4.3-3.6c0-1.9,1.7-3.3,4.6-3.3C81.4,81.1,83.4,82.6,83,85.2z"/>
	<path d="M87.4,93.4H86V81.6h1.4V93.4z"/>
	<path d="M90,89.2c0-2.6,1.8-4.5,4.5-4.5c2.6,0,4.4,1.8,4.4,4.5c0,2.6-1.8,4.4-4.4,4.4C91.8,93.6,90,91.8,90,89.2z M91.4,89.2   c0,2,1.2,3.3,3,3.3c1.8,0,3-1.3,3-3.3s-1.2-3.3-3-3.3C92.6,85.9,91.4,87.2,91.4,89.2z"/>
	<path d="M105.4,93.4h-2.2l-2.9-8.5h1.5l2.1,6.9l0.2,0.7h0.3l0.2-0.7l2.1-6.9h1.5L105.4,93.4z"/>
	<path d="M113.9,93.6c-2.5,0-4.2-1.6-4.2-4.4c0-2.9,2-4.5,4.1-4.5c2.3,0,4.1,1.5,3.8,4.9h-6.4c0.1,1.7,1.1,2.8,2.7,2.8   c1.3,0,1.9-0.7,2.2-1.4h1.5C117.1,92.4,116.2,93.6,113.9,93.6z M113.8,85.9c-1.6,0-2.5,1.2-2.6,2.5h5.1   C116.2,86.8,115.3,85.9,113.8,85.9z"/>
	<path d="M121.5,84.9v1.4h0.3c0.5-1,1.4-1.5,2.7-1.5c1.4,0,2.7,1,2.7,3v5.7h-1.4V88c0-1.6-0.7-2-1.7-2c-1.3,0-2.5,0.9-2.5,2.5v4.8   h-1.4v-8.5H121.5z"/>
	<path d="M136,87.6h-1.3c0-1.1-0.7-1.8-1.9-1.8c-1.1,0-1.8,0.5-1.8,1.2c0,0.6,0.4,1,1.7,1.5c2.1,0.7,3.3,1.2,3.3,2.8   c0,1.4-1.2,2.3-3.1,2.3c-2,0-3-1-3.2-2.6h1.4c0.1,1,0.7,1.5,1.9,1.5c1,0,1.7-0.5,1.7-1.2c0-0.8-0.7-1.1-2.4-1.7   c-1.7-0.5-2.5-1.2-2.5-2.5c0-1.4,1.3-2.4,3.1-2.4C134.8,84.7,136.1,85.7,136,87.6z"/>
	<path d="M144.2,93.4l-3-4.4l-1,0.9v3.5h-1.4V81.6h1.4v6.5h0.3l3.3-3.3h1.8l-3.5,3.3l3.5,5v0.2H144.2z"/>
	<path d="M151,84.7c2.2,0,3.5,1.1,3.5,3.1v4c0,0.4,0.2,0.4,0.4,0.4v1.1l-0.4,0c-0.8,0-1.2-0.5-1.2-1.3l-0.2,0c-0.7,1-1.7,1.5-3,1.5   c-1.7,0-2.8-1-2.8-2.4c0-1.5,1.2-2.5,3.4-2.5c2.1,0,2.5-0.1,2.5-0.9c0-1.1-0.7-1.8-2.1-1.8c-1.3,0-1.9,0.7-2.3,1.6l-1.2-0.6   C148.1,85.7,149.2,84.7,151,84.7z M153.9,81.1l0.4,1.3l-5.3,1.3l-0.3-1.1L153.9,81.1z M151.1,89.7c-1.5,0-2.2,0.5-2.2,1.4   c0,0.8,0.7,1.4,1.7,1.4c1.6,0,2.7-1,2.7-2.4l0-0.7C152.9,89.6,152.5,89.7,151.1,89.7z"/>
	<path d="M168.1,81.4h1.5v5.7l6.2-5.7h2l-5.5,5.1l5,6.7v0.2h-1.7l-4.4-5.9l-1.7,1.5v4.4h-1.5V81.4z"/>
	<path d="M179,89.2c0-2.6,1.8-4.5,4.5-4.5c2.6,0,4.4,1.8,4.4,4.5c0,2.6-1.8,4.4-4.4,4.4C180.8,93.6,179,91.8,179,89.2z M180.4,89.2   c0,2,1.2,3.3,3,3.3c1.8,0,3-1.3,3-3.3s-1.2-3.3-3-3.3C181.6,85.9,180.4,87.2,180.4,89.2z"/>
	<path d="M196.9,86.3h0.2c0.6-1,1.7-1.6,2.9-1.6c1.4,0,2.7,1,2.7,3v5.7h-1.4V88c0-1.6-0.7-2-1.8-2c-1.3,0-2.2,1-2.2,2.5v4.9H196V88   c0-1.6-0.7-2-1.7-2c-1.5,0-2.5,1.1-2.5,2.6v4.8h-1.4v-8.5h1.3v1.4h0.3c0.5-1.1,1.5-1.5,2.5-1.5C195.8,84.7,196.5,85.3,196.9,86.3z"/>
	<path d="M205.1,89.2c0-2.6,1.8-4.5,4.5-4.5c2.6,0,4.4,1.8,4.4,4.5c0,2.6-1.8,4.4-4.4,4.4C207,93.6,205.1,91.8,205.1,89.2z    M206.6,89.2c0,2,1.2,3.3,3,3.3c1.8,0,3-1.3,3-3.3s-1.2-3.3-3-3.3C207.8,85.9,206.6,87.2,206.6,89.2z"/>
	<path d="M216.6,93.4v-8.5h1.3v1.7h0.3c0.5-1.4,1.4-2,3.2-1.6v1.5c-2.4-0.2-3.5,0.4-3.5,3v4H216.6z"/>
	<path d="M226.6,84.7c2.2,0,3.5,1.1,3.5,3.1v4c0,0.4,0.2,0.4,0.4,0.4v1.1l-0.4,0c-0.8,0-1.2-0.5-1.2-1.3l-0.2,0   c-0.7,1-1.7,1.5-3,1.5c-1.7,0-2.8-1-2.8-2.4c0-1.5,1.2-2.5,3.4-2.5c2.1,0,2.5-0.1,2.5-0.9c0-1.1-0.7-1.8-2.1-1.8   c-1.3,0-1.9,0.7-2.3,1.6l-1.2-0.6C223.7,85.7,224.8,84.7,226.6,84.7z M226.7,89.7c-1.5,0-2.2,0.5-2.2,1.4c0,0.8,0.7,1.4,1.7,1.4   c1.6,0,2.7-1,2.7-2.4l0-0.7C228.5,89.6,228.1,89.7,226.7,89.7z"/>
	<path d="M247.1,83.8l-1.4,3.7l5.3,4.5l-0.9,1l-5-4.2l-1.7,4.6h-1.7l2.2-5.6l-3.2-2.6l0.9-1l2.8,2.3l2-5.1h2.7l4.7,12h-1.7l-3.6-9.6   L248,82h-0.3L247.1,83.8z"/>
	<path d="M255.9,93.4v-8.5h1.3v1.7h0.3c0.5-1.4,1.4-2,3.2-1.6v1.5c-2.4-0.2-3.5,0.4-3.5,3v4H255.9z"/>
	<path d="M269.9,87.9h-1.4c-0.2-1.2-0.9-2-2.3-2c-1.5,0-2.7,1-2.7,3.3c0,2,1,3.3,2.7,3.3c1.2,0,1.8-0.5,2.1-1.4h1.5   c-0.5,1.7-1.9,2.6-3.6,2.6c-2.7,0-4.2-1.7-4.2-4.4c0-2.8,1.8-4.5,4.3-4.5C268.6,84.7,269.8,86.3,269.9,87.9z"/>
	<path d="M273.8,86.3h0.2c0.6-0.9,1.4-1.5,2.7-1.5c1.5,0,2.7,1,2.7,2.9v5.7H278V88c0-1.6-0.7-2-1.7-2c-1.3,0-2.5,0.8-2.5,2.5v4.9   h-1.4V81.6h1.4V86.3z"/>
	<path d="M282.1,81.5h1.8v1.8h-1.8V81.5z M283.7,84.9v8.5h-1.4v-8.5H283.7z"/>
	<path d="M288.7,86.1v5.2c0,0.6,0.3,0.8,0.7,0.8h1.7v1.2h-1.8c-1.2,0-1.9-0.6-1.9-1.8v-5.4h-1.5v-1.2h1.5v-2.3h1.4v2.3h1.9v1.2   H288.7z"/>
	<path d="M296.8,93.6c-2.5,0-4.2-1.6-4.2-4.4c0-2.9,2-4.5,4.1-4.5c2.3,0,4.1,1.5,3.8,4.9h-6.4c0.1,1.7,1.1,2.8,2.7,2.8   c1.4,0,1.9-0.7,2.2-1.4h1.5C300,92.4,299.1,93.6,296.8,93.6z M296.7,85.9c-1.6,0-2.5,1.2-2.6,2.5h5.1   C299.1,86.8,298.2,85.9,296.7,85.9z"/>
	<path d="M308.5,93.4l-3-4.4l-1,0.9v3.5h-1.4V81.6h1.4v6.5h0.3l3.3-3.3h1.8l-3.5,3.3l3.5,5v0.2H308.5z"/>
	<path d="M314.1,86.1v5.2c0,0.6,0.3,0.8,0.7,0.8h1.7v1.2h-1.8c-1.2,0-1.9-0.6-1.9-1.8v-5.4h-1.5v-1.2h1.5v-2.3h1.4v2.3h1.9v1.2   H314.1z"/>
	<path d="M318,89.2c0-2.6,1.8-4.5,4.5-4.5c2.6,0,4.4,1.8,4.4,4.5c0,2.6-1.8,4.4-4.4,4.4C319.9,93.6,318,91.8,318,89.2z M319.5,89.2   c0,2,1.2,3.3,3,3.3c1.8,0,3-1.3,3-3.3s-1.2-3.3-3-3.3C320.7,85.9,319.5,87.2,319.5,89.2z"/>
	<path d="M333.4,93.4h-2.2l-2.9-8.5h1.5l2.1,6.9l0.2,0.7h0.3l0.2-0.7l2.1-6.9h1.5L333.4,93.4z"/>
</g>
</svg>